<svg width="180" height="38" viewBox="0 0 180 38" fill="none" xmlns="http://www.w3.org/2000/svg">
<g clip-path="url(#clip0_2056_643)">
<path d="M24.7 0.72381C24.7 0.32406 24.376 0 23.9762 0H14.0238C13.6241 0 13.3 0.32406 13.3 0.72381V12.5515C13.3 12.9512 12.976 13.2753 12.5762 13.2753H0.72381C0.324061 13.2753 0 13.5994 0 13.9991V23.9515C0 24.3512 0.32406 24.6753 0.72381 24.6753H12.5762C12.976 24.6753 13.3 24.9994 13.3 25.3991V37.2266C13.3 37.6265 13.6241 37.9504 14.0238 37.9504H23.9762C24.376 37.9504 24.7 37.6265 24.7 37.2266V25.3991C24.7 24.9994 25.024 24.6753 25.4238 24.6753H37.2762C37.6761 24.6753 38 24.3512 38 23.9515V13.9991C38 13.5994 37.6761 13.2753 37.2762 13.2753H25.4238C25.024 13.2753 24.7 12.9512 24.7 12.5515V0.72381Z" fill="#0077B6"/>
<mask id="mask0_2056_643" style="mask-type:luminance" maskUnits="userSpaceOnUse" x="10" y="8" width="18" height="18">
<path d="M27.3238 8.47998H10.6762V25.1276H27.3238V8.47998Z" fill="white"/>
</mask>
<g mask="url(#mask0_2056_643)">
<path d="M24.2365 16.108C23.9209 15.3977 23.4621 14.7601 22.8888 14.2352L22.4157 13.8011C22.3996 13.7868 22.3803 13.7766 22.3594 13.7714C22.3385 13.7663 22.3166 13.7664 22.2958 13.7717C22.2749 13.777 22.2557 13.7874 22.2397 13.8018C22.2238 13.8163 22.2116 13.8345 22.2043 13.8547L21.993 14.4611C21.8613 14.8416 21.6191 15.2301 21.276 15.6122C21.2533 15.6366 21.2273 15.643 21.2094 15.6447C21.1915 15.6463 21.1639 15.643 21.1395 15.6203C21.1167 15.6008 21.1053 15.5715 21.107 15.5422C21.1671 14.5635 20.8745 13.4597 20.2339 12.2583C19.7039 11.26 18.9675 10.4813 18.0473 9.9383L17.3759 9.54324C17.2881 9.49124 17.1759 9.55953 17.1808 9.66195L17.2166 10.4423C17.241 10.9756 17.1792 11.447 17.0329 11.8388C16.854 12.3184 16.5971 12.7639 16.2687 13.1638C16.0402 13.4418 15.7812 13.6931 15.4965 13.9132C14.8109 14.4403 14.2535 15.1156 13.8659 15.8886C13.4792 16.6683 13.2778 17.5267 13.2774 18.3971C13.2774 19.1644 13.4286 19.9074 13.7277 20.6081C14.0165 21.2827 14.4334 21.895 14.9551 22.411C15.4819 22.9313 16.0932 23.3409 16.7744 23.6255C17.4799 23.9213 18.2278 24.0709 19 24.0709C19.7722 24.0709 20.5201 23.9213 21.2256 23.6271C21.9051 23.3442 22.5231 22.9318 23.0449 22.4126C23.5716 21.8924 23.9845 21.2844 24.2723 20.6097C24.571 19.9109 24.7242 19.1586 24.7226 18.3987C24.7226 17.6053 24.56 16.8347 24.2365 16.108Z" fill="white"/>
<path d="M19.754 15.5674H17.8841V18.3721H15.0794V20.242H17.8841V24.9166H19.754V20.242H22.5588V18.3721H19.754V15.5674Z" fill="#0077B6"/>
</g>
</g>
<path d="M63.3239 9.71023C63.2784 9.25189 63.0833 8.89583 62.7386 8.64205C62.3939 8.38826 61.9261 8.26136 61.3352 8.26136C60.9337 8.26136 60.5947 8.31818 60.3182 8.43182C60.0417 8.54167 59.8295 8.69508 59.6818 8.89205C59.5379 9.08902 59.4659 9.3125 59.4659 9.5625C59.4583 9.77083 59.5019 9.95265 59.5966 10.108C59.6951 10.2633 59.8295 10.3977 60 10.5114C60.1705 10.6212 60.3674 10.7178 60.5909 10.8011C60.8144 10.8807 61.053 10.9489 61.3068 11.0057L62.3523 11.2557C62.8598 11.3693 63.3258 11.5208 63.75 11.7102C64.1742 11.8996 64.5417 12.1326 64.8523 12.4091C65.1629 12.6856 65.4034 13.0114 65.5739 13.3864C65.7481 13.7614 65.8371 14.1913 65.8409 14.6761C65.8371 15.3883 65.6553 16.0057 65.2955 16.5284C64.9394 17.0473 64.4242 17.4508 63.75 17.7386C63.0795 18.0227 62.2708 18.1648 61.3239 18.1648C60.3845 18.1648 59.5663 18.0208 58.8693 17.733C58.1761 17.4451 57.6345 17.0189 57.2443 16.4545C56.858 15.8864 56.6553 15.1837 56.6364 14.3466H59.017C59.0436 14.7367 59.1553 15.0625 59.3523 15.3239C59.553 15.5814 59.8201 15.7765 60.1534 15.9091C60.4905 16.0379 60.8712 16.1023 61.2955 16.1023C61.7121 16.1023 62.0739 16.0417 62.3807 15.9205C62.6913 15.7992 62.9318 15.6307 63.1023 15.4148C63.2727 15.1989 63.358 14.9508 63.358 14.6705C63.358 14.4091 63.2803 14.1894 63.125 14.0114C62.9735 13.8333 62.75 13.6818 62.4545 13.5568C62.1629 13.4318 61.8049 13.3182 61.3807 13.2159L60.1136 12.8977C59.1326 12.6591 58.358 12.286 57.7898 11.7784C57.2216 11.2708 56.9394 10.5871 56.9432 9.72727C56.9394 9.02273 57.1269 8.4072 57.5057 7.88068C57.8883 7.35417 58.4129 6.94318 59.0795 6.64773C59.7462 6.35227 60.5038 6.20455 61.3523 6.20455C62.2159 6.20455 62.9697 6.35227 63.6136 6.64773C64.2614 6.94318 64.7652 7.35417 65.125 7.88068C65.4848 8.4072 65.6705 9.01705 65.6818 9.71023H63.3239ZM67.0526 8.39205V6.36364H76.6094V8.39205H73.0469V18H70.6151V8.39205H67.0526ZM79.0057 18.1477C78.6307 18.1477 78.3087 18.0152 78.0398 17.75C77.7746 17.4811 77.642 17.1591 77.642 16.7841C77.642 16.4129 77.7746 16.0947 78.0398 15.8295C78.3087 15.5644 78.6307 15.4318 79.0057 15.4318C79.3693 15.4318 79.6875 15.5644 79.9602 15.8295C80.233 16.0947 80.3693 16.4129 80.3693 16.7841C80.3693 17.0341 80.3049 17.2633 80.1761 17.4716C80.0511 17.6761 79.8864 17.8409 79.6818 17.9659C79.4773 18.0871 79.2519 18.1477 79.0057 18.1477ZM88.0185 6.36364V18H85.5582V6.36364H88.0185ZM97.7585 10.125C97.679 9.84848 97.5672 9.60417 97.4233 9.39205C97.2794 9.17614 97.1032 8.99432 96.8949 8.84659C96.6903 8.69508 96.4555 8.57955 96.1903 8.5C95.929 8.42045 95.6392 8.38068 95.321 8.38068C94.7263 8.38068 94.2036 8.52841 93.7528 8.82386C93.3059 9.11932 92.9574 9.54924 92.7074 10.1136C92.4574 10.6742 92.3324 11.3598 92.3324 12.1705C92.3324 12.9811 92.4555 13.6705 92.7017 14.2386C92.9479 14.8068 93.2964 15.2405 93.7472 15.5398C94.1979 15.8352 94.7301 15.983 95.3438 15.983C95.9006 15.983 96.3759 15.8845 96.7699 15.6875C97.1676 15.4867 97.4706 15.2045 97.679 14.8409C97.8911 14.4773 97.9972 14.0473 97.9972 13.5511L98.4972 13.625H95.4972V11.7727H100.366V13.2386C100.366 14.2614 100.151 15.1402 99.7188 15.875C99.2869 16.6061 98.6922 17.1705 97.9347 17.5682C97.1771 17.9621 96.3097 18.1591 95.3324 18.1591C94.2415 18.1591 93.2831 17.9186 92.4574 17.4375C91.6316 16.9527 90.9877 16.2652 90.5256 15.375C90.0672 14.4811 89.8381 13.4205 89.8381 12.1932C89.8381 11.25 89.9744 10.4091 90.2472 9.67045C90.5237 8.92803 90.91 8.29924 91.4062 7.78409C91.9025 7.26894 92.4801 6.87689 93.1392 6.60795C93.7983 6.33901 94.5123 6.20455 95.2812 6.20455C95.9403 6.20455 96.554 6.30114 97.1222 6.49432C97.6903 6.68371 98.1941 6.95265 98.6335 7.30114C99.0767 7.64962 99.4384 8.06439 99.7188 8.54545C99.9991 9.02273 100.179 9.54924 100.259 10.125H97.7585ZM111.947 6.36364V18H109.822L104.76 10.6761H104.675V18H102.214V6.36364H104.374L109.396 13.6818H109.499V6.36364H111.947ZM115.986 18H113.349L117.366 6.36364H120.537L124.548 18H121.912L118.997 9.02273H118.906L115.986 18ZM115.821 13.4261H122.048V15.3466H115.821V13.4261ZM124.084 8.39205V6.36364H133.641V8.39205H130.078V18H127.646V8.39205H124.084ZM137.675 6.36364V18H135.214V6.36364H137.675ZM146.886 6.36364H149.347V13.9205C149.347 14.7689 149.144 15.5114 148.739 16.1477C148.337 16.7841 147.775 17.2803 147.051 17.6364C146.328 17.9886 145.485 18.1648 144.523 18.1648C143.557 18.1648 142.712 17.9886 141.989 17.6364C141.265 17.2803 140.703 16.7841 140.301 16.1477C139.9 15.5114 139.699 14.7689 139.699 13.9205V6.36364H142.159V13.7102C142.159 14.1534 142.256 14.5473 142.449 14.892C142.646 15.2367 142.922 15.5076 143.278 15.7045C143.634 15.9015 144.049 16 144.523 16C145 16 145.415 15.9015 145.767 15.7045C146.123 15.5076 146.398 15.2367 146.591 14.892C146.788 14.5473 146.886 14.1534 146.886 13.7102V6.36364ZM157.683 9.71023C157.638 9.25189 157.443 8.89583 157.098 8.64205C156.753 8.38826 156.286 8.26136 155.695 8.26136C155.293 8.26136 154.954 8.31818 154.678 8.43182C154.401 8.54167 154.189 8.69508 154.041 8.89205C153.897 9.08902 153.825 9.3125 153.825 9.5625C153.818 9.77083 153.861 9.95265 153.956 10.108C154.054 10.2633 154.189 10.3977 154.359 10.5114C154.53 10.6212 154.727 10.7178 154.95 10.8011C155.174 10.8807 155.412 10.9489 155.666 11.0057L156.712 11.2557C157.219 11.3693 157.685 11.5208 158.109 11.7102C158.534 11.8996 158.901 12.1326 159.212 12.4091C159.522 12.6856 159.763 13.0114 159.933 13.3864C160.107 13.7614 160.196 14.1913 160.2 14.6761C160.196 15.3883 160.015 16.0057 159.655 16.5284C159.299 17.0473 158.784 17.4508 158.109 17.7386C157.439 18.0227 156.63 18.1648 155.683 18.1648C154.744 18.1648 153.926 18.0208 153.229 17.733C152.536 17.4451 151.994 17.0189 151.604 16.4545C151.217 15.8864 151.015 15.1837 150.996 14.3466H153.376C153.403 14.7367 153.515 15.0625 153.712 15.3239C153.912 15.5814 154.179 15.7765 154.513 15.9091C154.85 16.0379 155.231 16.1023 155.655 16.1023C156.071 16.1023 156.433 16.0417 156.74 15.9205C157.051 15.7992 157.291 15.6307 157.462 15.4148C157.632 15.1989 157.717 14.9508 157.717 14.6705C157.717 14.4091 157.64 14.1894 157.484 14.0114C157.333 13.8333 157.109 13.6818 156.814 13.5568C156.522 13.4318 156.164 13.3182 155.74 13.2159L154.473 12.8977C153.492 12.6591 152.717 12.286 152.149 11.7784C151.581 11.2708 151.299 10.5871 151.303 9.72727C151.299 9.02273 151.486 8.4072 151.865 7.88068C152.248 7.35417 152.772 6.94318 153.439 6.64773C154.106 6.35227 154.863 6.20455 155.712 6.20455C156.575 6.20455 157.329 6.35227 157.973 6.64773C158.621 6.94318 159.125 7.35417 159.484 7.88068C159.844 8.4072 160.03 9.01705 160.041 9.71023H157.683ZM56.8849 23.8182H59.5398L62.3438 30.6591H62.4631L65.267 23.8182H67.9219V34H65.8338V27.3729H65.7493L63.1143 33.9503H61.6925L59.0575 27.348H58.973V34H56.8849V23.8182ZM69.6955 34V23.8182H76.5563V25.593H71.8482V28.0192H76.2033V29.794H71.8482V32.2251H76.5762V34H69.6955ZM81.8771 34H78.2678V23.8182H81.907C82.9311 23.8182 83.8127 24.022 84.5518 24.4297C85.291 24.834 85.8594 25.4157 86.2571 26.1747C86.6581 26.9337 86.8587 27.8419 86.8587 28.8991C86.8587 29.9598 86.6581 30.8712 86.2571 31.6335C85.8594 32.3958 85.2876 32.9808 84.5419 33.3885C83.7995 33.7962 82.9112 34 81.8771 34ZM80.4205 32.1555H81.7876C82.424 32.1555 82.9593 32.0429 83.3935 31.8175C83.831 31.5888 84.1591 31.2358 84.3778 30.7585C84.5999 30.2779 84.7109 29.6581 84.7109 28.8991C84.7109 28.1468 84.5999 27.532 84.3778 27.0547C84.1591 26.5774 83.8326 26.2261 83.3984 26.0007C82.9643 25.7753 82.429 25.6626 81.7926 25.6626H80.4205V32.1555ZM90.606 23.8182V34H88.4533V23.8182H90.606ZM101.361 27.3828H99.1832C99.1435 27.1011 99.0623 26.8509 98.9396 26.6321C98.817 26.41 98.6596 26.2211 98.4673 26.0653C98.2751 25.9096 98.053 25.7902 97.8011 25.7074C97.5526 25.6245 97.2824 25.5831 96.9908 25.5831C96.4638 25.5831 96.0047 25.714 95.6136 25.9759C95.2225 26.2344 94.9193 26.6122 94.7038 27.1094C94.4884 27.6032 94.3807 28.2031 94.3807 28.9091C94.3807 29.6349 94.4884 30.2448 94.7038 30.7386C94.9226 31.2325 95.2275 31.6054 95.6186 31.8572C96.0097 32.1091 96.4621 32.2351 96.9759 32.2351C97.2642 32.2351 97.531 32.197 97.7763 32.1207C98.0249 32.0445 98.2453 31.9335 98.4375 31.7876C98.6297 31.6385 98.7888 31.4579 98.9148 31.2457C99.044 31.0336 99.1335 30.7917 99.1832 30.5199L101.361 30.5298C101.304 30.9972 101.164 31.4479 100.938 31.8821C100.716 32.313 100.416 32.6991 100.038 33.0405C99.6638 33.3786 99.2164 33.647 98.696 33.8459C98.179 34.0414 97.594 34.1392 96.9411 34.1392C96.0329 34.1392 95.2209 33.9337 94.505 33.5227C93.7924 33.1117 93.2289 32.5168 92.8146 31.7379C92.4036 30.959 92.1982 30.0161 92.1982 28.9091C92.1982 27.7988 92.407 26.8542 92.8246 26.0753C93.2422 25.2964 93.8089 24.7031 94.5249 24.2955C95.2408 23.8845 96.0462 23.679 96.9411 23.679C97.531 23.679 98.0779 23.7618 98.5817 23.9276C99.0888 24.0933 99.5379 24.3352 99.929 24.6534C100.32 24.9683 100.638 25.3544 100.884 25.8118C101.132 26.2692 101.291 26.7929 101.361 27.3828ZM104.468 34H102.161L105.676 23.8182H108.45L111.96 34H109.653L107.103 26.1449H107.023L104.468 34ZM104.324 29.9979H109.773V31.6783H104.324V29.9979ZM113.186 34V23.8182H115.338V32.2251H119.703V34H113.186ZM133.353 27.3828H131.175C131.136 27.1011 131.054 26.8509 130.932 26.6321C130.809 26.41 130.652 26.2211 130.46 26.0653C130.267 25.9096 130.045 25.7902 129.793 25.7074C129.545 25.6245 129.275 25.5831 128.983 25.5831C128.456 25.5831 127.997 25.714 127.606 25.9759C127.215 26.2344 126.911 26.6122 126.696 27.1094C126.481 27.6032 126.373 28.2031 126.373 28.9091C126.373 29.6349 126.481 30.2448 126.696 30.7386C126.915 31.2325 127.22 31.6054 127.611 31.8572C128.002 32.1091 128.454 32.2351 128.968 32.2351C129.256 32.2351 129.523 32.197 129.768 32.1207C130.017 32.0445 130.237 31.9335 130.43 31.7876C130.622 31.6385 130.781 31.4579 130.907 31.2457C131.036 31.0336 131.126 30.7917 131.175 30.5199L133.353 30.5298C133.297 30.9972 133.156 31.4479 132.93 31.8821C132.708 32.313 132.408 32.6991 132.031 33.0405C131.656 33.3786 131.209 33.647 130.688 33.8459C130.171 34.0414 129.586 34.1392 128.933 34.1392C128.025 34.1392 127.213 33.9337 126.497 33.5227C125.785 33.1117 125.221 32.5168 124.807 31.7379C124.396 30.959 124.19 30.0161 124.19 28.9091C124.19 27.7988 124.399 26.8542 124.817 26.0753C125.234 25.2964 125.801 24.7031 126.517 24.2955C127.233 23.8845 128.038 23.679 128.933 23.679C129.523 23.679 130.07 23.7618 130.574 23.9276C131.081 24.0933 131.53 24.3352 131.921 24.6534C132.312 24.9683 132.63 25.3544 132.876 25.8118C133.124 26.2692 133.283 26.7929 133.353 27.3828ZM134.897 34V23.8182H141.757V25.593H137.049V28.0192H141.404V29.794H137.049V32.2251H141.777V34H134.897ZM151.985 23.8182V34H150.126L145.696 27.5916H145.622V34H143.469V23.8182H145.358L149.753 30.2216H149.843V23.8182H151.985ZM153.376 25.593V23.8182H161.738V25.593H158.621V34H156.493V25.593H153.376ZM163.115 34V23.8182H169.976V25.593H165.268V28.0192H169.623V29.794H165.268V32.2251H169.996V34H163.115ZM171.688 34V23.8182H175.705C176.474 23.8182 177.13 23.9557 177.673 24.2308C178.22 24.5026 178.636 24.8887 178.921 25.3892C179.21 25.8864 179.354 26.4714 179.354 27.1442C179.354 27.8203 179.208 28.402 178.916 28.8892C178.625 29.3731 178.202 29.7443 177.649 30.0028C177.098 30.2614 176.432 30.3906 175.65 30.3906H172.96V28.6605H175.302C175.713 28.6605 176.054 28.6042 176.326 28.4915C176.598 28.3788 176.8 28.2098 176.933 27.9844C177.069 27.759 177.137 27.4789 177.137 27.1442C177.137 26.8061 177.069 26.5211 176.933 26.2891C176.8 26.0571 176.596 25.8814 176.321 25.7621C176.049 25.6394 175.706 25.5781 175.292 25.5781H173.84V34H171.688ZM177.186 29.3665L179.717 34H177.34L174.865 29.3665H177.186Z" fill="#0077B6"/>
<defs>
<clipPath id="clip0_2056_643">
<rect width="38" height="38" fill="white"/>
</clipPath>
</defs>
</svg>
