<svg width="32" height="32" viewBox="0 0 32 32" fill="none" xmlns="http://www.w3.org/2000/svg">
<g clip-path="url(#clip0_2146_181)">
<path d="M20.8 0.609524C20.8 0.272893 20.5271 0 20.1905 0H11.8095C11.4729 0 11.2 0.272893 11.2 0.609524V10.5697C11.2 10.9063 10.9271 11.1792 10.5905 11.1792H0.609524C0.272893 11.1792 0 11.4521 0 11.7887V20.1697C0 20.5063 0.272893 20.7792 0.609524 20.7792H10.5905C10.9271 20.7792 11.2 21.0521 11.2 21.3887V31.3487C11.2 31.6855 11.4729 31.9582 11.8095 31.9582H20.1905C20.5271 31.9582 20.8 31.6855 20.8 31.3487V21.3887C20.8 21.0521 21.0729 20.7792 21.4095 20.7792H31.3905C31.7272 20.7792 32 20.5063 32 20.1697V11.7887C32 11.4521 31.7272 11.1792 31.3905 11.1792H21.4095C21.0729 11.1792 20.8 10.9063 20.8 10.5697V0.609524Z" fill="#0077B6"/>
<mask id="mask0_2146_181" style="mask-type:luminance" maskUnits="userSpaceOnUse" x="8" y="7" width="16" height="15">
<path d="M23.0095 7.14111H8.99048V21.1602H23.0095V7.14111Z" fill="white"/>
</mask>
<g mask="url(#mask0_2146_181)">
<path d="M20.4096 13.5647C20.1439 12.9666 19.7575 12.4296 19.2747 11.9876L18.8763 11.6221C18.8628 11.61 18.8465 11.6014 18.8289 11.5971C18.8113 11.5928 18.7929 11.5929 18.7753 11.5974C18.7577 11.6018 18.7416 11.6105 18.7281 11.6227C18.7147 11.6349 18.7045 11.6502 18.6983 11.6672L18.5204 12.1779C18.4095 12.4983 18.2055 12.8255 17.9166 13.1472C17.8975 13.1677 17.8756 13.1732 17.8605 13.1746C17.8454 13.1759 17.8222 13.1732 17.8016 13.154C17.7824 13.1376 17.7729 13.113 17.7742 13.0883C17.8249 12.2641 17.5785 11.3346 17.0391 10.3228C16.5927 9.48225 15.9726 8.82646 15.1977 8.3692L14.6323 8.03652C14.5583 7.99272 14.4639 8.05023 14.468 8.13648L14.4981 8.79361C14.5187 9.24267 14.4666 9.63969 14.3434 9.96962C14.1928 10.3735 13.9765 10.7486 13.6999 11.0854C13.5075 11.3195 13.2894 11.5312 13.0496 11.7165C12.4723 12.1603 12.0029 12.729 11.6765 13.3799C11.3509 14.0365 11.1813 14.7594 11.1809 15.4924C11.1809 16.1386 11.3082 16.7642 11.5601 17.3543C11.8034 17.9224 12.1544 18.438 12.5938 18.8725C13.0373 19.3106 13.5521 19.6556 14.1257 19.8952C14.7199 20.1444 15.3497 20.2703 16 20.2703C16.6503 20.2703 17.28 20.1444 17.8742 19.8966C18.4464 19.6584 18.9668 19.3111 19.4062 18.8739C19.8497 18.4358 20.1974 17.9238 20.4398 17.3557C20.6913 16.7672 20.8203 16.1337 20.819 15.4937C20.819 14.8256 20.6821 14.1767 20.4096 13.5647Z" fill="white"/>
<path d="M16.635 13.1094H15.0604V15.4713H12.6985V17.0459H15.0604V20.9824H16.635V17.0459H18.9969V15.4713H16.635V13.1094Z" fill="#0077B6"/>
</g>
</g>
<defs>
<clipPath id="clip0_2146_181">
<rect width="32" height="32" fill="white"/>
</clipPath>
</defs>
</svg>
