<svg width="24" height="24" viewBox="0 0 24 24" fill="none" xmlns="http://www.w3.org/2000/svg">
<path d="M12.83 3.25H7.17C6.635 3.25 6.19 3.25 5.825 3.28C5.445 3.31 5.089 3.378 4.752 3.55C4.23445 3.81367 3.81367 4.23445 3.55 4.752C3.378 5.089 3.31 5.445 3.28 5.825C3.25 6.19 3.25 6.635 3.25 7.17V16.83C3.25 17.365 3.25 17.81 3.28 18.175C3.31 18.555 3.378 18.911 3.55 19.248C3.81367 19.7656 4.23445 20.1863 4.752 20.45C4.93 20.541 5.151 20.577 5.282 20.596C5.449 20.621 5.65 20.64 5.866 20.656C6.3 20.688 6.841 20.709 7.393 20.723C8.345 20.746 9.298 20.75 10.25 20.75C10.4489 20.75 10.6397 20.671 10.7803 20.5303C10.921 20.3897 11 20.1989 11 20C11 19.8011 10.921 19.6103 10.7803 19.4697C10.6397 19.329 10.4489 19.25 10.25 19.25C9.69 19.25 8.515 19.25 7.43 19.223C6.94492 19.213 6.46013 19.192 5.976 19.16C5.77533 19.1447 5.61667 19.1287 5.5 19.112L5.394 19.094C5.17587 18.973 4.99895 18.7894 4.886 18.567C4.84 18.477 4.798 18.34 4.775 18.052C4.751 17.757 4.75 17.372 4.75 16.8V7.2C4.75 6.628 4.75 6.243 4.775 5.947C4.798 5.66 4.84 5.523 4.886 5.433C5.00591 5.19741 5.19741 5.00591 5.433 4.886C5.523 4.84 5.66 4.798 5.947 4.775C6.243 4.751 6.627 4.75 7.2 4.75H12.8C13.372 4.75 13.757 4.75 14.052 4.775C14.34 4.798 14.477 4.84 14.568 4.886C14.803 5.006 14.994 5.197 15.114 5.433C15.16 5.523 15.202 5.66 15.225 5.947C15.249 6.243 15.25 6.627 15.25 7.2V10.25C15.25 10.4489 15.329 10.6397 15.4697 10.7803C15.6103 10.921 15.8011 11 16 11C16.1989 11 16.3897 10.921 16.5303 10.7803C16.671 10.6397 16.75 10.4489 16.75 10.25V7.17C16.75 6.635 16.75 6.19 16.72 5.825C16.69 5.445 16.622 5.089 16.45 4.752C16.1869 4.23475 15.7668 3.81401 15.25 3.55C14.912 3.378 14.556 3.31 14.176 3.28C13.811 3.25 13.366 3.25 12.831 3.25" fill="#4C4C4C"/>
<path d="M14.371 12.25H18.629C19.024 12.25 19.365 12.25 19.646 12.273C19.943 12.297 20.238 12.351 20.521 12.495C20.945 12.711 21.289 13.055 21.505 13.479C21.649 13.762 21.703 14.057 21.727 14.354C21.75 14.634 21.75 14.976 21.75 15.371V17.629C21.75 18.024 21.75 18.365 21.727 18.646C21.7115 18.9495 21.6361 19.2469 21.505 19.521C21.2895 19.9446 20.9454 20.289 20.522 20.505C20.238 20.649 19.942 20.703 19.646 20.727C19.366 20.75 19.024 20.75 18.629 20.75H14.371C13.976 20.75 13.635 20.75 13.354 20.727C13.0505 20.7115 12.7531 20.6361 12.479 20.505C12.0554 20.2895 11.7109 19.9454 11.495 19.522C11.3638 19.2476 11.2883 18.9498 11.273 18.646C11.25 18.366 11.25 18.024 11.25 17.629V15.37C11.25 14.975 11.25 14.634 11.273 14.353C11.2885 14.0495 11.3639 13.7521 11.495 13.478C11.7108 13.0543 12.0553 12.7098 12.479 12.494C12.7531 12.3629 13.0505 12.2875 13.354 12.272C13.634 12.249 13.976 12.249 14.371 12.249M12.75 15.4V16.25H20.25V15.4C20.25 15.131 20.25 14.921 20.245 14.75H12.755C12.75 14.921 12.75 15.131 12.75 15.4ZM5.75 7C5.75 6.80109 5.82902 6.61032 5.96967 6.46967C6.11032 6.32902 6.30109 6.25 6.5 6.25H10.5C10.6989 6.25 10.8897 6.32902 11.0303 6.46967C11.171 6.61032 11.25 6.80109 11.25 7C11.25 7.19891 11.171 7.38968 11.0303 7.53033C10.8897 7.67098 10.6989 7.75 10.5 7.75H6.5C6.30109 7.75 6.11032 7.67098 5.96967 7.53033C5.82902 7.38968 5.75 7.19891 5.75 7ZM6.5 9.25C6.30109 9.25 6.11032 9.32902 5.96967 9.46967C5.82902 9.61032 5.75 9.80109 5.75 10C5.75 10.1989 5.82902 10.3897 5.96967 10.5303C6.11032 10.671 6.30109 10.75 6.5 10.75H13.5C13.6989 10.75 13.8897 10.671 14.0303 10.5303C14.171 10.3897 14.25 10.1989 14.25 10C14.25 9.80109 14.171 9.61032 14.0303 9.46967C13.8897 9.32902 13.6989 9.25 13.5 9.25H6.5ZM5.75 13C5.75 12.8011 5.82902 12.6103 5.96967 12.4697C6.11032 12.329 6.30109 12.25 6.5 12.25H10C10.1989 12.25 10.3897 12.329 10.5303 12.4697C10.671 12.6103 10.75 12.8011 10.75 13C10.75 13.1989 10.671 13.3897 10.5303 13.5303C10.3897 13.671 10.1989 13.75 10 13.75H6.5C6.30109 13.75 6.11032 13.671 5.96967 13.5303C5.82902 13.3897 5.75 13.1989 5.75 13ZM6.5 16.25C6.30109 16.25 6.11032 16.329 5.96967 16.4697C5.82902 16.6103 5.75 16.8011 5.75 17C5.75 17.1989 5.82902 17.3897 5.96967 17.5303C6.11032 17.671 6.30109 17.75 6.5 17.75H8.5C8.69891 17.75 8.88968 17.671 9.03033 17.5303C9.17098 17.3897 9.25 17.1989 9.25 17C9.25 16.8011 9.17098 16.6103 9.03033 16.4697C8.88968 16.329 8.69891 16.25 8.5 16.25H6.5Z" fill="#4C4C4C"/>
</svg>
