<svg width="53" height="51" viewBox="0 0 53 51" fill="none" xmlns="http://www.w3.org/2000/svg">
<path fill-rule="evenodd" clip-rule="evenodd" d="M22.9999 1C25.889 0.999986 28.7498 1.56902 31.419 2.67462C34.0882 3.78021 36.5134 5.40071 38.5563 7.4436C40.5992 9.48648 42.2197 11.9117 43.3253 14.5809C44.431 17.2501 45 20.1109 45 22.9999C45 35.1502 35.1502 45 22.9999 45C10.8498 45 1 35.1502 1 22.9999C1 10.8498 10.8498 1 22.9999 1ZM25.2 25.2H20.8C15.3534 25.2 10.6774 28.4987 8.66063 33.2075C11.8517 37.6822 17.0851 40.6 22.9999 40.6C28.9148 40.6 34.1482 37.6822 37.3394 33.2071C35.3226 28.4987 30.6466 25.2 25.2 25.2ZM22.9999 7.59999C19.3549 7.59999 16.4 10.5549 16.4 14.2C16.4 17.845 19.3549 20.8 22.9999 20.8C26.645 20.8 29.5999 17.845 29.5999 14.2C29.5999 10.5549 26.6451 7.59999 22.9999 7.59999Z" fill="#D9D9D9"/>
<rect x="30" y="51" width="24" height="23" rx="11.5" transform="rotate(-90 30 51)" fill="#E5F7FF"/>
<path d="M37.2812 37.3906L41.5 41.6094L45.7188 37.3906" stroke="#0077B6" stroke-width="1.5" stroke-linecap="round" stroke-linejoin="round"/>
</svg>
