<svg width="180" height="43" viewBox="0 0 180 43" fill="none" xmlns="http://www.w3.org/2000/svg">
<g clip-path="url(#clip0_2170_20)">
<path d="M166.7 5.72381C166.7 5.32406 166.376 5 165.976 5H156.024C155.624 5 155.3 5.32406 155.3 5.72381V17.5515C155.3 17.9512 154.976 18.2753 154.576 18.2753H142.724C142.324 18.2753 142 18.5994 142 18.9991V28.9515C142 29.3512 142.324 29.6753 142.724 29.6753H154.576C154.976 29.6753 155.3 29.9994 155.3 30.3991V42.2266C155.3 42.6265 155.624 42.9504 156.024 42.9504H165.976C166.376 42.9504 166.7 42.6265 166.7 42.2266V30.3991C166.7 29.9994 167.024 29.6753 167.424 29.6753H179.276C179.676 29.6753 180 29.3512 180 28.9515V18.9991C180 18.5994 179.676 18.2753 179.276 18.2753H167.424C167.024 18.2753 166.7 17.9512 166.7 17.5515V5.72381Z" fill="#0077B6"/>
<mask id="mask0_2170_20" style="mask-type:luminance" maskUnits="userSpaceOnUse" x="152" y="13" width="18" height="18">
<path d="M169.324 13.48H152.676V30.1276H169.324V13.48Z" fill="white"/>
</mask>
<g mask="url(#mask0_2170_20)">
<path d="M166.237 21.108C165.921 20.3977 165.462 19.7601 164.889 19.2352L164.416 18.8011C164.4 18.7868 164.38 18.7766 164.359 18.7714C164.338 18.7663 164.317 18.7664 164.296 18.7717C164.275 18.777 164.256 18.7874 164.24 18.8018C164.224 18.8163 164.212 18.8345 164.204 18.8547L163.993 19.4611C163.861 19.8416 163.619 20.2301 163.276 20.6122C163.253 20.6366 163.227 20.643 163.209 20.6447C163.192 20.6463 163.164 20.643 163.139 20.6203C163.117 20.6008 163.105 20.5715 163.107 20.5422C163.167 19.5635 162.874 18.4597 162.234 17.2583C161.704 16.26 160.967 15.4813 160.047 14.9383L159.376 14.5432C159.288 14.4912 159.176 14.5595 159.181 14.6619L159.217 15.4423C159.241 15.9756 159.179 16.447 159.033 16.8388C158.854 17.3184 158.597 17.7639 158.269 18.1638C158.04 18.4418 157.781 18.6931 157.497 18.9132C156.811 19.4403 156.254 20.1156 155.866 20.8886C155.479 21.6683 155.278 22.5267 155.277 23.3971C155.277 24.1644 155.429 24.9074 155.728 25.6081C156.017 26.2827 156.433 26.895 156.955 27.411C157.482 27.9313 158.093 28.3409 158.774 28.6255C159.48 28.9213 160.228 29.0709 161 29.0709C161.772 29.0709 162.52 28.9213 163.226 28.6271C163.905 28.3442 164.523 27.9318 165.045 27.4126C165.572 26.8924 165.985 26.2844 166.272 25.6097C166.571 24.9109 166.724 24.1586 166.723 23.3987C166.723 22.6053 166.56 21.8347 166.237 21.108Z" fill="white"/>
<path d="M161.754 20.5674H159.884V23.3721H157.079V25.242H159.884V29.9166H161.754V25.242H164.559V23.3721H161.754V20.5674Z" fill="#0077B6"/>
</g>
</g>
<path d="M7.32386 14.7102C7.27841 14.2519 7.08333 13.8958 6.73864 13.642C6.39394 13.3883 5.92614 13.2614 5.33523 13.2614C4.93371 13.2614 4.5947 13.3182 4.31818 13.4318C4.04167 13.5417 3.82955 13.6951 3.68182 13.892C3.53788 14.089 3.46591 14.3125 3.46591 14.5625C3.45833 14.7708 3.50189 14.9527 3.59659 15.108C3.69508 15.2633 3.82955 15.3977 4 15.5114C4.17045 15.6212 4.36742 15.7178 4.59091 15.8011C4.81439 15.8807 5.05303 15.9489 5.30682 16.0057L6.35227 16.2557C6.85985 16.3693 7.32576 16.5208 7.75 16.7102C8.17424 16.8996 8.54167 17.1326 8.85227 17.4091C9.16288 17.6856 9.40341 18.0114 9.57386 18.3864C9.74811 18.7614 9.83712 19.1913 9.84091 19.6761C9.83712 20.3883 9.6553 21.0057 9.29545 21.5284C8.93939 22.0473 8.42424 22.4508 7.75 22.7386C7.07955 23.0227 6.27083 23.1648 5.32386 23.1648C4.38447 23.1648 3.56629 23.0208 2.86932 22.733C2.17614 22.4451 1.63447 22.0189 1.24432 21.4545C0.857955 20.8864 0.655303 20.1837 0.636364 19.3466H3.01705C3.04356 19.7367 3.1553 20.0625 3.35227 20.3239C3.55303 20.5814 3.82008 20.7765 4.15341 20.9091C4.49053 21.0379 4.87121 21.1023 5.29545 21.1023C5.71212 21.1023 6.07386 21.0417 6.38068 20.9205C6.69129 20.7992 6.93182 20.6307 7.10227 20.4148C7.27273 20.1989 7.35795 19.9508 7.35795 19.6705C7.35795 19.4091 7.2803 19.1894 7.125 19.0114C6.97348 18.8333 6.75 18.6818 6.45455 18.5568C6.16288 18.4318 5.80492 18.3182 5.38068 18.2159L4.11364 17.8977C3.13258 17.6591 2.35795 17.286 1.78977 16.7784C1.22159 16.2708 0.939394 15.5871 0.943182 14.7273C0.939394 14.0227 1.12689 13.4072 1.50568 12.8807C1.88826 12.3542 2.41288 11.9432 3.07955 11.6477C3.74621 11.3523 4.50379 11.2045 5.35227 11.2045C6.21591 11.2045 6.9697 11.3523 7.61364 11.6477C8.26136 11.9432 8.76515 12.3542 9.125 12.8807C9.48485 13.4072 9.67045 14.017 9.68182 14.7102H7.32386ZM11.0526 13.392V11.3636H20.6094V13.392H17.0469V23H14.6151V13.392H11.0526ZM23.0057 23.1477C22.6307 23.1477 22.3087 23.0152 22.0398 22.75C21.7746 22.4811 21.642 22.1591 21.642 21.7841C21.642 21.4129 21.7746 21.0947 22.0398 20.8295C22.3087 20.5644 22.6307 20.4318 23.0057 20.4318C23.3693 20.4318 23.6875 20.5644 23.9602 20.8295C24.233 21.0947 24.3693 21.4129 24.3693 21.7841C24.3693 22.0341 24.3049 22.2633 24.1761 22.4716C24.0511 22.6761 23.8864 22.8409 23.6818 22.9659C23.4773 23.0871 23.2519 23.1477 23.0057 23.1477ZM32.0185 11.3636V23H29.5582V11.3636H32.0185ZM41.7585 15.125C41.679 14.8485 41.5672 14.6042 41.4233 14.392C41.2794 14.1761 41.1032 13.9943 40.8949 13.8466C40.6903 13.6951 40.4555 13.5795 40.1903 13.5C39.929 13.4205 39.6392 13.3807 39.321 13.3807C38.7263 13.3807 38.2036 13.5284 37.7528 13.8239C37.3059 14.1193 36.9574 14.5492 36.7074 15.1136C36.4574 15.6742 36.3324 16.3598 36.3324 17.1705C36.3324 17.9811 36.4555 18.6705 36.7017 19.2386C36.9479 19.8068 37.2964 20.2405 37.7472 20.5398C38.1979 20.8352 38.7301 20.983 39.3438 20.983C39.9006 20.983 40.3759 20.8845 40.7699 20.6875C41.1676 20.4867 41.4706 20.2045 41.679 19.8409C41.8911 19.4773 41.9972 19.0473 41.9972 18.5511L42.4972 18.625H39.4972V16.7727H44.3665V18.2386C44.3665 19.2614 44.1506 20.1402 43.7188 20.875C43.2869 21.6061 42.6922 22.1705 41.9347 22.5682C41.1771 22.9621 40.3097 23.1591 39.3324 23.1591C38.2415 23.1591 37.2831 22.9186 36.4574 22.4375C35.6316 21.9527 34.9877 21.2652 34.5256 20.375C34.0672 19.4811 33.8381 18.4205 33.8381 17.1932C33.8381 16.25 33.9744 15.4091 34.2472 14.6705C34.5237 13.928 34.91 13.2992 35.4062 12.7841C35.9025 12.2689 36.4801 11.8769 37.1392 11.608C37.7983 11.339 38.5123 11.2045 39.2812 11.2045C39.9403 11.2045 40.554 11.3011 41.1222 11.4943C41.6903 11.6837 42.1941 11.9527 42.6335 12.3011C43.0767 12.6496 43.4384 13.0644 43.7188 13.5455C43.9991 14.0227 44.179 14.5492 44.2585 15.125H41.7585ZM55.9474 11.3636V23H53.8224L48.7599 15.6761H48.6747V23H46.2145V11.3636H48.3736L53.3963 18.6818H53.4986V11.3636H55.9474ZM59.9858 23H57.3494L61.3665 11.3636H64.5369L68.5483 23H65.9119L62.9972 14.0227H62.9062L59.9858 23ZM59.821 18.4261H66.0483V20.3466H59.821V18.4261ZM68.0838 13.392V11.3636H77.6406V13.392H74.0781V23H71.6463V13.392H68.0838ZM81.6747 11.3636V23H79.2145V11.3636H81.6747ZM90.8864 11.3636H93.3466V18.9205C93.3466 19.7689 93.1439 20.5114 92.7386 21.1477C92.3371 21.7841 91.7746 22.2803 91.0511 22.6364C90.3277 22.9886 89.4848 23.1648 88.5227 23.1648C87.5568 23.1648 86.7121 22.9886 85.9886 22.6364C85.2652 22.2803 84.7027 21.7841 84.3011 21.1477C83.8996 20.5114 83.6989 19.7689 83.6989 18.9205V11.3636H86.1591V18.7102C86.1591 19.1534 86.2557 19.5473 86.4489 19.892C86.6458 20.2367 86.9223 20.5076 87.2784 20.7045C87.6345 20.9015 88.0492 21 88.5227 21C89 21 89.4148 20.9015 89.767 20.7045C90.1231 20.5076 90.3977 20.2367 90.5909 19.892C90.7879 19.5473 90.8864 19.1534 90.8864 18.7102V11.3636ZM101.683 14.7102C101.638 14.2519 101.443 13.8958 101.098 13.642C100.753 13.3883 100.286 13.2614 99.6946 13.2614C99.2931 13.2614 98.9541 13.3182 98.6776 13.4318C98.401 13.5417 98.1889 13.6951 98.0412 13.892C97.8973 14.089 97.8253 14.3125 97.8253 14.5625C97.8177 14.7708 97.8613 14.9527 97.956 15.108C98.0545 15.2633 98.1889 15.3977 98.3594 15.5114C98.5298 15.6212 98.7268 15.7178 98.9503 15.8011C99.1738 15.8807 99.4124 15.9489 99.6662 16.0057L100.712 16.2557C101.219 16.3693 101.685 16.5208 102.109 16.7102C102.534 16.8996 102.901 17.1326 103.212 17.4091C103.522 17.6856 103.763 18.0114 103.933 18.3864C104.107 18.7614 104.196 19.1913 104.2 19.6761C104.196 20.3883 104.015 21.0057 103.655 21.5284C103.299 22.0473 102.784 22.4508 102.109 22.7386C101.439 23.0227 100.63 23.1648 99.6832 23.1648C98.7438 23.1648 97.9257 23.0208 97.2287 22.733C96.5355 22.4451 95.9938 22.0189 95.6037 21.4545C95.2173 20.8864 95.0147 20.1837 94.9957 19.3466H97.3764C97.4029 19.7367 97.5147 20.0625 97.7116 20.3239C97.9124 20.5814 98.1795 20.7765 98.5128 20.9091C98.8499 21.0379 99.2306 21.1023 99.6548 21.1023C100.071 21.1023 100.433 21.0417 100.74 20.9205C101.051 20.7992 101.291 20.6307 101.462 20.4148C101.632 20.1989 101.717 19.9508 101.717 19.6705C101.717 19.4091 101.64 19.1894 101.484 19.0114C101.333 18.8333 101.109 18.6818 100.814 18.5568C100.522 18.4318 100.164 18.3182 99.7401 18.2159L98.473 17.8977C97.492 17.6591 96.7173 17.286 96.1491 16.7784C95.581 16.2708 95.2988 15.5871 95.3026 14.7273C95.2988 14.0227 95.4863 13.4072 95.8651 12.8807C96.2476 12.3542 96.7723 11.9432 97.4389 11.6477C98.1056 11.3523 98.8632 11.2045 99.7116 11.2045C100.575 11.2045 101.329 11.3523 101.973 11.6477C102.621 11.9432 103.125 12.3542 103.484 12.8807C103.844 13.4072 104.03 14.017 104.041 14.7102H101.683ZM0.884943 28.8182H3.53977L6.34375 35.6591H6.46307L9.26705 28.8182H11.9219V39H9.83381V32.3729H9.74929L7.11435 38.9503H5.69247L3.05753 32.348H2.97301V39H0.884943V28.8182ZM13.6955 39V28.8182H20.5563V30.593H15.8482V33.0192H20.2033V34.794H15.8482V37.2251H20.5762V39H13.6955ZM25.8771 39H22.2678V28.8182H25.907C26.9311 28.8182 27.8127 29.022 28.5518 29.4297C29.291 29.834 29.8594 30.4157 30.2571 31.1747C30.6581 31.9337 30.8587 32.8419 30.8587 33.8991C30.8587 34.9598 30.6581 35.8712 30.2571 36.6335C29.8594 37.3958 29.2876 37.9808 28.5419 38.3885C27.7995 38.7962 26.9112 39 25.8771 39ZM24.4205 37.1555H25.7876C26.424 37.1555 26.9593 37.0429 27.3935 36.8175C27.831 36.5888 28.1591 36.2358 28.3778 35.7585C28.5999 35.2779 28.7109 34.6581 28.7109 33.8991C28.7109 33.1468 28.5999 32.532 28.3778 32.0547C28.1591 31.5774 27.8326 31.2261 27.3984 31.0007C26.9643 30.7753 26.429 30.6626 25.7926 30.6626H24.4205V37.1555ZM34.606 28.8182V39H32.4533V28.8182H34.606ZM45.3608 32.3828H43.1832C43.1435 32.1011 43.0623 31.8509 42.9396 31.6321C42.817 31.41 42.6596 31.2211 42.4673 31.0653C42.2751 30.9096 42.053 30.7902 41.8011 30.7074C41.5526 30.6245 41.2824 30.5831 40.9908 30.5831C40.4638 30.5831 40.0047 30.714 39.6136 30.9759C39.2225 31.2344 38.9193 31.6122 38.7038 32.1094C38.4884 32.6032 38.3807 33.2031 38.3807 33.9091C38.3807 34.6349 38.4884 35.2448 38.7038 35.7386C38.9226 36.2325 39.2275 36.6054 39.6186 36.8572C40.0097 37.1091 40.4621 37.2351 40.9759 37.2351C41.2642 37.2351 41.531 37.197 41.7763 37.1207C42.0249 37.0445 42.2453 36.9335 42.4375 36.7876C42.6297 36.6385 42.7888 36.4579 42.9148 36.2457C43.044 36.0336 43.1335 35.7917 43.1832 35.5199L45.3608 35.5298C45.3045 35.9972 45.1636 36.4479 44.9382 36.8821C44.7161 37.313 44.4162 37.6991 44.0384 38.0405C43.6638 38.3786 43.2164 38.647 42.696 38.8459C42.179 39.0414 41.594 39.1392 40.9411 39.1392C40.0329 39.1392 39.2209 38.9337 38.505 38.5227C37.7924 38.1117 37.2289 37.5168 36.8146 36.7379C36.4036 35.959 36.1982 35.0161 36.1982 33.9091C36.1982 32.7988 36.407 31.8542 36.8246 31.0753C37.2422 30.2964 37.8089 29.7031 38.5249 29.2955C39.2408 28.8845 40.0462 28.679 40.9411 28.679C41.531 28.679 42.0779 28.7618 42.5817 28.9276C43.0888 29.0933 43.5379 29.3352 43.929 29.6534C44.3201 29.9683 44.6383 30.3544 44.8835 30.8118C45.1321 31.2692 45.2912 31.7929 45.3608 32.3828ZM48.468 39H46.1612L49.6761 28.8182H52.4503L55.9602 39H53.6534L51.103 31.1449H51.0234L48.468 39ZM48.3239 34.9979H53.7727V36.6783H48.3239V34.9979ZM57.1857 39V28.8182H59.3384V37.2251H63.7035V39H57.1857ZM77.353 32.3828H75.1754C75.1357 32.1011 75.0545 31.8509 74.9318 31.6321C74.8092 31.41 74.6518 31.2211 74.4595 31.0653C74.2673 30.9096 74.0452 30.7902 73.7933 30.7074C73.5447 30.6245 73.2746 30.5831 72.983 30.5831C72.456 30.5831 71.9969 30.714 71.6058 30.9759C71.2147 31.2344 70.9115 31.6122 70.696 32.1094C70.4806 32.6032 70.3729 33.2031 70.3729 33.9091C70.3729 34.6349 70.4806 35.2448 70.696 35.7386C70.9148 36.2325 71.2197 36.6054 71.6108 36.8572C72.0019 37.1091 72.4543 37.2351 72.968 37.2351C73.2564 37.2351 73.5232 37.197 73.7685 37.1207C74.017 37.0445 74.2375 36.9335 74.4297 36.7876C74.6219 36.6385 74.781 36.4579 74.907 36.2457C75.0362 36.0336 75.1257 35.7917 75.1754 35.5199L77.353 35.5298C77.2966 35.9972 77.1558 36.4479 76.9304 36.8821C76.7083 37.313 76.4084 37.6991 76.0305 38.0405C75.656 38.3786 75.2086 38.647 74.6882 38.8459C74.1712 39.0414 73.5862 39.1392 72.9332 39.1392C72.0251 39.1392 71.2131 38.9337 70.4972 38.5227C69.7846 38.1117 69.2211 37.5168 68.8068 36.7379C68.3958 35.959 68.1903 35.0161 68.1903 33.9091C68.1903 32.7988 68.3991 31.8542 68.8168 31.0753C69.2344 30.2964 69.8011 29.7031 70.517 29.2955C71.233 28.8845 72.0384 28.679 72.9332 28.679C73.5232 28.679 74.0701 28.7618 74.5739 28.9276C75.081 29.0933 75.5301 29.3352 75.9212 29.6534C76.3123 29.9683 76.6304 30.3544 76.8757 30.8118C77.1243 31.2692 77.2834 31.7929 77.353 32.3828ZM78.8967 39V28.8182H85.7575V30.593H81.0494V33.0192H85.4045V34.794H81.0494V37.2251H85.7773V39H78.8967ZM95.9853 28.8182V39H94.1259L89.6962 32.5916H89.6216V39H87.4689V28.8182H89.3581L93.753 35.2216H93.8425V28.8182H95.9853ZM97.3761 30.593V28.8182H105.738V30.593H102.621V39H100.493V30.593H97.3761ZM107.115 39V28.8182H113.976V30.593H109.268V33.0192H113.623V34.794H109.268V37.2251H113.996V39H107.115ZM115.688 39V28.8182H119.705C120.474 28.8182 121.13 28.9557 121.673 29.2308C122.22 29.5026 122.636 29.8887 122.921 30.3892C123.21 30.8864 123.354 31.4714 123.354 32.1442C123.354 32.8203 123.208 33.402 122.916 33.8892C122.625 34.3731 122.202 34.7443 121.649 35.0028C121.098 35.2614 120.432 35.3906 119.65 35.3906H116.96V33.6605H119.302C119.713 33.6605 120.054 33.6042 120.326 33.4915C120.598 33.3788 120.8 33.2098 120.933 32.9844C121.069 32.759 121.137 32.4789 121.137 32.1442C121.137 31.8061 121.069 31.5211 120.933 31.2891C120.8 31.0571 120.596 30.8814 120.321 30.7621C120.049 30.6394 119.706 30.5781 119.292 30.5781H117.84V39H115.688ZM121.186 34.3665L123.717 39H121.34L118.865 34.3665H121.186Z" fill="#0077B6"/>
<defs>
<clipPath id="clip0_2170_20">
<rect width="38" height="38" fill="white" transform="translate(142 5)"/>
</clipPath>
</defs>
</svg>
