<svg width="51" height="51" viewBox="0 0 51 51" fill="none" xmlns="http://www.w3.org/2000/svg">
<path d="M33.15 0.971429C33.15 0.434923 32.7151 0 32.1786 0H18.8214C18.2849 0 17.85 0.434923 17.85 0.971429V16.8454C17.85 17.3819 17.4151 17.8168 16.8786 17.8168H0.971429C0.434924 17.8168 0 18.2518 0 18.7883V32.1454C0 32.6819 0.434923 33.1168 0.971429 33.1168H16.8786C17.4151 33.1168 17.85 33.5518 17.85 34.0883V49.962C17.85 50.4987 18.2849 50.9335 18.8214 50.9335H32.1786C32.7151 50.9335 33.15 50.4987 33.15 49.962V34.0883C33.15 33.5518 33.5849 33.1168 34.1214 33.1168H50.0286C50.5653 33.1168 51 32.6819 51 32.1454V18.7883C51 18.2518 50.5653 17.8168 50.0286 17.8168H34.1214C33.5849 17.8168 33.15 17.3819 33.15 16.8454V0.971429Z" fill="#0077B6"/>
<mask id="mask0_2190_25" style="mask-type:luminance" maskUnits="userSpaceOnUse" x="14" y="11" width="23" height="23">
<path d="M36.6716 11.3811H14.3287V33.724H36.6716V11.3811Z" fill="white"/>
</mask>
<g mask="url(#mask0_2190_25)">
<path d="M32.528 21.6188C32.1044 20.6654 31.4887 19.8097 30.7192 19.1052L30.0843 18.5226C30.0627 18.5034 30.0368 18.4897 30.0087 18.4828C29.9806 18.476 29.9513 18.4761 29.9233 18.4832C29.8953 18.4903 29.8695 18.5042 29.8481 18.5236C29.8267 18.5431 29.8104 18.5674 29.8006 18.5946L29.517 19.4085C29.3402 19.919 29.0151 20.4405 28.5548 20.9533C28.5242 20.986 28.4893 20.9947 28.4653 20.9969C28.4413 20.9991 28.4042 20.9947 28.3715 20.9642C28.3409 20.938 28.3257 20.8987 28.3278 20.8594C28.4086 19.5459 28.0158 18.0644 27.1562 16.452C26.4448 15.1123 25.4564 14.0671 24.2215 13.3383L23.3203 12.8081C23.2025 12.7383 23.052 12.83 23.0585 12.9675L23.1065 14.0148C23.1392 14.7305 23.0563 15.3632 22.86 15.889C22.6199 16.5327 22.2752 17.1306 21.8344 17.6673C21.5277 18.0404 21.1801 18.3777 20.798 18.6731C19.8779 19.3805 19.1298 20.2868 18.6096 21.3242C18.0906 22.3707 17.8203 23.5228 17.8197 24.6909C17.8197 25.7208 18.0226 26.7179 18.4241 27.6583C18.8117 28.5637 19.3712 29.3855 20.0714 30.0781C20.7784 30.7763 21.5988 31.3261 22.513 31.708C23.46 32.105 24.4636 32.3058 25.5001 32.3058C26.5365 32.3058 27.5402 32.105 28.4871 31.7101C29.3991 31.3305 30.2284 30.7769 30.9287 30.0802C31.6356 29.382 32.1898 28.566 32.576 27.6605C32.9769 26.7226 33.1826 25.713 33.1804 24.6931C33.1804 23.6283 32.9622 22.5941 32.528 21.6188Z" fill="white"/>
<path d="M26.5121 20.8931H24.0026V24.6574H20.2383V27.1668H24.0026V33.4407H26.5121V27.1668H30.2764V24.6574H26.5121V20.8931Z" fill="#0077B6"/>
</g>
</svg>
